<svg width="101" height="19" viewBox="0 0 101 19" fill="none" xmlns="http://www.w3.org/2000/svg">
<g clip-path="url(#clip0_205_46)">
<path d="M8.30944 8.80215C7.33622 8.81742 6.4667 9.0007 5.70089 9.352C4.93508 9.68794 4.38465 10.1996 4.04961 10.8869V18.1491H0.842773V6.14469H3.78636V8.71051C4.00972 8.29815 4.27297 7.9316 4.57611 7.61087C4.87924 7.27487 5.2063 6.9847 5.5573 6.74033C5.9083 6.49596 6.25929 6.31269 6.61029 6.19051C6.97724 6.05306 7.32824 5.98433 7.66329 5.98433C7.83879 5.98433 7.96642 5.98433 8.04619 5.98433C8.14192 5.98433 8.22967 5.99196 8.30944 6.00724V8.80215Z" fill="#383838"/>
<path d="M15.5214 18.3782C14.5163 18.3782 13.6069 18.2178 12.7932 17.8971C11.9795 17.5611 11.2855 17.1105 10.7111 16.5454C10.1368 15.9803 9.69002 15.3236 9.37096 14.5753C9.0678 13.8269 8.91626 13.0404 8.91626 12.2156C8.91626 11.3603 9.0678 10.5585 9.37096 9.81018C9.67404 9.04651 10.1128 8.38214 10.6872 7.81705C11.2616 7.23668 11.9556 6.77851 12.7693 6.44251C13.5988 6.1065 14.5242 5.93851 15.5453 5.93851C16.5663 5.93851 17.4757 6.1065 18.2735 6.44251C19.0872 6.77851 19.7732 7.22905 20.3316 7.79414C20.906 8.35924 21.3368 9.01596 21.624 9.76436C21.927 10.5127 22.0787 11.2916 22.0787 12.1011C22.0787 12.2996 22.0706 12.4905 22.0547 12.6738C22.0547 12.8571 22.0387 13.0098 22.0069 13.132H12.3146C12.3624 13.6054 12.4821 14.0254 12.6735 14.392C12.865 14.7585 13.1122 15.0716 13.4154 15.3313C13.7185 15.5909 14.0616 15.7894 14.4445 15.9269C14.8274 16.0644 15.2262 16.1331 15.641 16.1331C16.2792 16.1331 16.8775 15.9879 17.4359 15.6978C18.0103 15.3923 18.4011 14.9952 18.6086 14.5065L21.3607 15.2396C20.898 16.156 20.1561 16.912 19.1351 17.5076C18.1299 18.088 16.9253 18.3782 15.5214 18.3782ZM18.7761 11.1389C18.6963 10.2378 18.3453 9.51997 17.7231 8.98542C17.1168 8.4356 16.3749 8.16069 15.4975 8.16069C15.0667 8.16069 14.6598 8.23705 14.2769 8.38978C13.9099 8.52723 13.5829 8.72578 13.2957 8.98542C13.0086 9.24506 12.7693 9.55818 12.5778 9.92472C12.4022 10.2913 12.2986 10.6959 12.2667 11.1389H18.7761Z" fill="#383838"/>
<path d="M35.9262 18.1491H32.7193V11.4138C32.7193 10.4516 32.5439 9.74906 32.1928 9.30618C31.8418 8.86323 31.3552 8.64178 30.733 8.64178C30.414 8.64178 30.0869 8.70287 29.7518 8.82505C29.4168 8.94723 29.0977 9.12287 28.7946 9.35199C28.5074 9.56579 28.2441 9.82539 28.0048 10.1309C27.7655 10.4363 27.59 10.7724 27.4783 11.1389V18.1491H24.2715V6.14469H27.1672V8.36687C27.6299 7.60324 28.2999 7.0076 29.1775 6.57996C30.055 6.15232 31.0441 5.93851 32.145 5.93851C32.9268 5.93851 33.5649 6.07596 34.0595 6.35087C34.5541 6.62578 34.937 6.98469 35.2082 7.4276C35.4794 7.8705 35.6629 8.3745 35.7587 8.9396C35.8704 9.50467 35.9262 10.0774 35.9262 10.6578V18.1491Z" fill="#383838"/>
<path d="M46.3517 17.5306C45.9209 17.7138 45.3944 17.8971 44.7722 18.0804C44.15 18.2636 43.4959 18.3553 42.8098 18.3553C42.363 18.3553 41.9403 18.3018 41.5414 18.1949C41.1585 18.088 40.8155 17.92 40.5124 17.6909C40.2252 17.4465 39.9938 17.1411 39.8183 16.7746C39.6429 16.3927 39.5551 15.9345 39.5551 15.4V8.50434H37.9038V6.1447H39.5551V2.25015H42.7619V6.1447H45.3944V8.50434H42.7619V14.3691C42.7619 14.7967 42.8736 15.1022 43.097 15.2855C43.3363 15.4534 43.6235 15.5375 43.9585 15.5375C44.2936 15.5375 44.6206 15.484 44.9397 15.3771C45.2588 15.2702 45.5141 15.1785 45.7055 15.1022L46.3517 17.5306Z" fill="#383838"/>
<path d="M48.2612 18.1491V6.14469H51.4681V18.1491H48.2612ZM48.2612 4.47233V1.42542H51.4681V4.47233H48.2612Z" fill="#383838"/>
<path d="M62.1627 18.2636C60.9182 18.2636 59.7855 18.0345 58.7644 17.5764C57.7592 17.1029 56.8898 16.4843 56.1558 15.7207C55.4379 14.9418 54.8795 14.056 54.4806 13.0633C54.0818 12.0705 53.8823 11.0549 53.8823 10.0164C53.8823 8.93197 54.0898 7.89342 54.5045 6.9007C54.9353 5.90796 55.5177 5.02978 56.2516 4.26615C57.0015 3.50252 57.8869 2.89924 58.908 2.45633C59.9291 1.99815 61.0379 1.76906 62.2345 1.76906C63.463 1.76906 64.5798 2.01343 65.5849 2.50215C66.606 2.97561 67.4755 3.60179 68.1934 4.3807C68.9114 5.15961 69.4698 6.04543 69.8686 7.03815C70.2675 8.03088 70.4669 9.03888 70.4669 10.0622C70.4669 11.1465 70.2596 12.185 69.8447 13.1778C69.4299 14.1552 68.8556 15.0258 68.1216 15.7895C67.3878 16.5378 66.5103 17.1411 65.4892 17.5993C64.4681 18.0422 63.3592 18.2636 62.1627 18.2636ZM57.2327 10.0164C57.2327 10.7189 57.3445 11.3985 57.5678 12.0553C57.7912 12.7119 58.1103 13.2924 58.5251 13.7964C58.9558 14.3004 59.4744 14.705 60.0806 15.0105C60.7028 15.316 61.4049 15.4687 62.1866 15.4687C62.9844 15.4687 63.6863 15.316 64.2926 15.0105C64.9148 14.6898 65.4333 14.2698 65.8481 13.7505C66.2789 13.2312 66.5981 12.6509 66.8054 12.0095C67.0288 11.3527 67.1404 10.6883 67.1404 10.0164C67.1404 9.31379 67.0208 8.63415 66.7815 7.97742C66.5581 7.32069 66.231 6.74033 65.8003 6.23633C65.3855 5.73233 64.8669 5.33524 64.2447 5.04506C63.6385 4.73961 62.9524 4.58688 62.1866 4.58688C61.3889 4.58688 60.6789 4.74724 60.0567 5.06797C59.4345 5.37342 58.916 5.78578 58.5011 6.30506C58.0863 6.80906 57.7673 7.38942 57.5439 8.04615C57.3365 8.6876 57.2327 9.34431 57.2327 10.0164Z" fill="#383838"/>
<path d="M84.5832 18.1491H81.3763V11.4138C81.3763 10.4516 81.2009 9.74906 80.8498 9.30618C80.4988 8.86323 80.0122 8.64178 79.39 8.64178C79.0709 8.64178 78.7438 8.70287 78.4088 8.82505C78.0738 8.94723 77.7547 9.12287 77.4515 9.35199C77.1644 9.56579 76.9011 9.82539 76.6618 10.1309C76.4225 10.4363 76.247 10.7724 76.1353 11.1389V18.1491H72.9285V6.14469H75.8242V8.36687C76.2868 7.60324 76.9569 7.0076 77.8344 6.57996C78.712 6.15232 79.7011 5.93851 80.802 5.93851C81.5838 5.93851 82.2219 6.07596 82.7165 6.35087C83.2111 6.62578 83.594 6.98469 83.8652 7.4276C84.1364 7.8705 84.3199 8.3745 84.4156 8.9396C84.5274 9.50467 84.5832 10.0774 84.5832 10.6578V18.1491Z" fill="#383838"/>
<path d="M93.4267 18.3782C92.4215 18.3782 91.5121 18.2178 90.6985 17.8971C89.8848 17.5611 89.1908 17.1105 88.6164 16.5454C88.042 15.9803 87.595 15.3236 87.2762 14.5753C86.9728 13.8269 86.8215 13.0404 86.8215 12.2156C86.8215 11.3603 86.9728 10.5585 87.2762 9.81018C87.5788 9.04651 88.0181 8.38214 88.5925 7.81705C89.1668 7.23668 89.8608 6.77851 90.6745 6.44251C91.5036 6.1065 92.4292 5.93851 93.4506 5.93851C94.4711 5.93851 95.3805 6.1065 96.1788 6.44251C96.9925 6.77851 97.6779 7.22905 98.2369 7.79414C98.8113 8.35924 99.242 9.01596 99.5292 9.76436C99.8318 10.5127 99.9839 11.2916 99.9839 12.1011C99.9839 12.2996 99.9754 12.4905 99.96 12.6738C99.96 12.8571 99.9438 13.0098 99.9121 13.132H90.2198C90.2677 13.6054 90.3873 14.0254 90.5788 14.392C90.7702 14.7585 91.0173 15.0716 91.3207 15.3313C91.6232 15.5909 91.9668 15.7894 92.3497 15.9269C92.7326 16.0644 93.1309 16.1331 93.5463 16.1331C94.1839 16.1331 94.7822 15.9879 95.3412 15.6978C95.9155 15.3923 96.3061 14.9952 96.5138 14.5065L99.266 15.2396C98.8027 16.156 98.0609 16.912 97.0403 17.5076C96.0352 18.088 94.8301 18.3782 93.4267 18.3782ZM96.6814 11.1389C96.601 10.2378 96.2506 9.51997 95.6284 8.98542C95.0215 8.4356 94.2797 8.16069 93.4027 8.16069C92.972 8.16069 92.5651 8.23705 92.1822 8.38978C91.8147 8.52723 91.4882 8.72578 91.201 8.98542C90.9138 9.24506 90.6745 9.55818 90.4831 9.92472C90.307 10.2913 90.2036 10.6959 90.172 11.1389H96.6814Z" fill="#383838"/>
<path d="M86.9907 0.967194H99.8112V3.42174H86.9907V0.967194Z" fill="#383838"/>
</g>
<defs>
<clipPath id="clip0_205_46">
<rect width="100" height="18" fill="white" transform="translate(0.238525 0.967194)"/>
</clipPath>
</defs>
</svg>
