<svg width="19" height="19" viewBox="0 0 19 19" fill="none" xmlns="http://www.w3.org/2000/svg">
<path d="M17.031 4.95429C16.4403 4.20599 15.3498 3.90076 13.2671 3.90076H5.70679C3.5764 3.90076 2.46736 4.22568 1.87891 5.02235C1.30518 5.7991 1.30518 6.9436 1.30518 8.5276V11.5467C1.30518 14.6154 1.9859 16.1735 5.70679 16.1735H13.2671C15.0732 16.1735 16.074 15.9042 16.7215 15.2438C17.3856 14.5666 17.6688 13.461 17.6688 11.5467V8.5276C17.6688 6.85713 17.6245 5.7059 17.031 4.95429ZM11.8107 10.454L8.37759 12.3661C8.30084 12.4089 8.21691 12.4301 8.13308 12.4301C8.03817 12.4301 7.94348 12.4028 7.85961 12.3487C7.70167 12.2467 7.60522 12.0643 7.60522 11.8675V8.05551C7.60522 7.85907 7.7014 7.67681 7.85902 7.57476C8.0167 7.47273 8.21279 7.46575 8.37638 7.55631L11.8095 9.45613C11.9842 9.55276 12.0938 9.74495 12.094 9.95457C12.0943 10.1644 11.9851 10.3569 11.8107 10.454Z" fill="#C3C3C3"/>
</svg>
